<svg xmlns="http://www.w3.org/2000/svg" viewBox="0 0 23.12 23.12"><defs><style>.cls-1{fill:#fff;}</style></defs><title>btn_insta</title><g id="Capa_2" data-name="Capa 2"><g id="Capa_1-2" data-name="Capa 1"><path class="cls-1" d="M11.56,2.08c3.09,0,3.45,0,4.67.07,3.13.14,4.6,1.63,4.74,4.74C21,8.11,21,8.47,21,11.56S21,15,21,16.23c-.14,3.11-1.6,4.6-4.74,4.74C15,21,14.65,21,11.56,21S8.11,21,6.89,21c-3.14-.14-4.6-1.64-4.74-4.74-.06-1.22-.07-1.58-.07-4.67s0-3.45.07-4.67c.14-3.11,1.6-4.6,4.74-4.74C8.11,2.1,8.47,2.08,11.56,2.08Zm0-2.08C8.42,0,8,0,6.79.07,2.6.26.26,2.59.07,6.79,0,8,0,8.42,0,11.56s0,3.53.07,4.77c.19,4.19,2.52,6.53,6.72,6.72,1.24.05,1.63.07,4.77.07s3.53,0,4.77-.07c4.19-.19,6.53-2.52,6.72-6.72.05-1.24.07-1.63.07-4.77s0-3.53-.07-4.77C22.86,2.6,20.53.26,16.33.07,15.09,0,14.7,0,11.56,0Zm0,5.62a5.94,5.94,0,1,0,5.93,5.94A5.94,5.94,0,0,0,11.56,5.62Zm0,9.79a3.85,3.85,0,1,1,3.85-3.85A3.85,3.85,0,0,1,11.56,15.41ZM17.73,4a1.39,1.39,0,1,0,1.39,1.39A1.39,1.39,0,0,0,17.73,4Z"/></g></g></svg>