<svg xmlns="http://www.w3.org/2000/svg" viewBox="0 0 23.12 23.12"><defs><style>.cls-1{fill:#fff;}</style></defs><title>btn_face</title><g id="Capa_2" data-name="Capa 2"><g id="Capa_1-2" data-name="Capa 1"><path class="cls-1" d="M11.56,1.93a9.63,9.63,0,1,1-9.63,9.63A9.64,9.64,0,0,1,11.56,1.93Zm0-1.93A11.56,11.56,0,1,0,23.12,11.56,11.57,11.57,0,0,0,11.56,0ZM9.63,9.63H7.71v1.93H9.63v5.78h2.89V11.56h1.76l.17-1.93H12.52v-.8c0-.46.09-.64.54-.64h1.39V5.78H12.13c-1.73,0-2.5.76-2.5,2.22Z"/></g></g></svg>