<svg xmlns="http://www.w3.org/2000/svg" viewBox="0 0 23.01 23.12"><defs><style>.cls-1{fill:#fff;}</style></defs><title>btn_whatsapp</title><g id="Capa_2" data-name="Capa 2"><g id="Capa_1-2" data-name="Capa 1"><path class="cls-1" d="M0,23.12l1.63-5.94a11.46,11.46,0,0,1,18-13.82,11.46,11.46,0,0,1-8.11,19.56,11.53,11.53,0,0,1-5.48-1.39Zm6.35-3.67a9.54,9.54,0,0,0,14.72-8,9.52,9.52,0,1,0-19,0,9.63,9.63,0,0,0,1.68,5.42l-1,3.52Zm11-5.26c-.07-.12-.26-.19-.55-.34s-1.69-.83-1.95-.93-.45-.14-.65.15-.74.93-.9,1.12-.34.21-.62.07a7.89,7.89,0,0,1-2.31-1.42,8.89,8.89,0,0,1-1.59-2,.42.42,0,0,1,.13-.59c.13-.13.28-.33.43-.5a2.36,2.36,0,0,0,.29-.48.54.54,0,0,0,0-.5c-.07-.14-.64-1.55-.88-2.12s-.47-.49-.64-.5H7.5a1.11,1.11,0,0,0-.77.36,3.23,3.23,0,0,0-1,2.39,5.58,5.58,0,0,0,1.17,3,12.76,12.76,0,0,0,4.89,4.32,15.36,15.36,0,0,0,1.63.61,3.93,3.93,0,0,0,1.8.11,3,3,0,0,0,1.94-1.36A2.27,2.27,0,0,0,17.32,14.19Z"/></g></g></svg>