<svg xmlns="http://www.w3.org/2000/svg" viewBox="0 0 144.73 78.23"><defs><style>.cls-1{fill:#fff;}</style></defs><title>logobig</title><g id="Capa_2" data-name="Capa 2"><g id="Capa_1-2" data-name="Capa 1"><path class="cls-1" d="M88.72,26.05H85.88a5,5,0,0,1-4.7-4.22,2.56,2.56,0,0,1,.69-2.52,16.05,16.05,0,0,0,1.2-1.83A3.88,3.88,0,0,1,86.3,16q5,0,10,0c.42,0,.84-.18,1.26-.21a1.47,1.47,0,0,1,.81.13,4.09,4.09,0,0,1,1.81,2.62,14.33,14.33,0,0,1,.16,5.76,17,17,0,0,1-7.28,12.35,17.08,17.08,0,0,1-11.84,2.69,19.71,19.71,0,0,1-7.85-2.27,18.3,18.3,0,0,1-9-12.13,28.4,28.4,0,0,1-.64-6.39,10,10,0,0,1,.87-2.94,26,26,0,0,1,3.47-7.55A18.11,18.11,0,0,1,85.34.27c1.68.16,3.31.69,5,.87,3.27.34,5.47,2.26,7.22,4.78a5,5,0,0,1,.16,5.91c-1.61,2.43-4.13,2.87-6.88,1.37a32.3,32.3,0,0,0-5.32-2.6c-5.09-1.67-9.43,1-10.57,6.21a10.23,10.23,0,0,0,2,9,17.5,17.5,0,0,0,3.35,2.95,5.24,5.24,0,0,0,4,.63,14.73,14.73,0,0,0,3-.79C88.62,28.07,88.86,27.6,88.72,26.05Z"/><path class="cls-1" d="M43.25,18a27.27,27.27,0,0,1,2.6,2.52c3.12,4,2.82,10.4-.52,14.41A10.74,10.74,0,0,1,36.56,39c-4,0-8-.1-12,0a5.57,5.57,0,0,1-5.66-5.54c-.09-2,0-4,0-6q0-10.11,0-20.23a3.94,3.94,0,0,1,.59-2.48c.59-.81,1-1.73,1.65-2.52A4,4,0,0,1,24.27.67c3.63,0,7.26,0,10.89.08A28.56,28.56,0,0,1,38.07,1a2.63,2.63,0,0,1,.77.23A11.17,11.17,0,0,1,45,11.84,12.54,12.54,0,0,1,43.25,18ZM30,24.46c0,1.19-.08,2.31,0,3.41A1.13,1.13,0,0,0,31.12,29c1.42,0,2.84,0,4.25,0a2,2,0,0,0,1.93-1.4c.3-.85-.94-3-1.83-3.07C33.68,24.41,31.88,24.46,30,24.46Zm0-14c0,1.09,0,2.07,0,3a1.12,1.12,0,0,0,.18.51c.53,1,1.46.91,2.36.82a2.58,2.58,0,0,0,2.24-1.4,1,1,0,0,0,0-.7,2.94,2.94,0,0,0-.56-1.15,3.8,3.8,0,0,0-1.61-1.07A12,12,0,0,0,30,10.48Z"/><path class="cls-1" d="M87.79,59.15v-.86c0-3.3-.06-6.61,0-9.91a8.79,8.79,0,0,1,.48-2.47A2.77,2.77,0,0,1,90.06,44a2.48,2.48,0,0,0,1-.58c1.44-1.47,4-.63,5.07.53a6.06,6.06,0,0,1,1.62,4.16c0,8.3,0,16.6,0,24.9,0,3.46-3.48,6-6.59,4.78a5.81,5.81,0,0,1-2.32-1.85c-3.63-4.84-7.18-9.73-10.75-14.61L77.83,61l-.17,0v1.58c0,3.17,0,6.34,0,9.5a6.16,6.16,0,0,1-1.75,4.69,4.55,4.55,0,0,1-7-.71,7.2,7.2,0,0,1-1.26-4.15c0-7.86,0-15.73,0-23.6a8.85,8.85,0,0,1,.39-2.39A2.73,2.73,0,0,1,69.74,44,5.1,5.1,0,0,0,71,43.13,3,3,0,0,1,74.57,43a9.33,9.33,0,0,1,2.28,2.06c3.48,4.51,6.89,9.07,10.32,13.62l.41.51Z"/><path class="cls-1" d="M37.39,64.84q0,3.8,0,7.59A5.88,5.88,0,0,1,36.33,76a4.49,4.49,0,0,1-4.48,2.09,5.14,5.14,0,0,1-4.24-4,6.16,6.16,0,0,1-.18-1.77c0-7.89,0-15.79,0-23.68a9.77,9.77,0,0,1,.52-2.7,2.35,2.35,0,0,1,.86-1.34C30,43.92,31.09,43,32.55,43c3.58,0,7.16-.12,10.73,0a9.2,9.2,0,0,1,7.84,4.18,12.52,12.52,0,0,1,1,12.51,17.11,17.11,0,0,1-2.74,3.4,7.55,7.55,0,0,1-.77.67c1.22,1.8,2.43,3.57,3.61,5.35a6,6,0,0,1-.11,7.15,4.46,4.46,0,0,1-7.23.27,58.61,58.61,0,0,1-3.36-5.21c-.68-1.08-1.33-2.18-2-3.28l-2-3.2Zm0-8.2c.21,0,.32,0,.43,0l3.19.06a1.93,1.93,0,0,0,2.23-2.17c0-.89-.57-1.91-1.29-2-1.51-.08-3,0-4.56,0Z"/><path class="cls-1" d="M10,67.64c0,1.44.06,2.8,0,4.15a10.29,10.29,0,0,1-.49,3,4.73,4.73,0,0,1-4.62,3.24A5.09,5.09,0,0,1,.23,74.2,7.38,7.38,0,0,1,0,72.27c0-7.73,0-15.46,0-23.18a12.5,12.5,0,0,1,.6-3.25,2.53,2.53,0,0,1,1.59-1.63,13.73,13.73,0,0,0,1.43-.91A2.61,2.61,0,0,1,4.79,43c3.58,0,7.16-.18,10.73,0a10.27,10.27,0,0,1,8.81,5.54A13.13,13.13,0,0,1,24,62.48a10.64,10.64,0,0,1-8.14,5c-1.62.2-3.26.13-4.9.18C10.67,67.65,10.38,67.64,10,67.64Zm0-14.9c0,1.64,0,3.16,0,4.69,0,.18.38.49.61.5,1,.08,2,0,3,.11,1.62.16,2.17-.65,2.56-1.93a2.57,2.57,0,0,0-2.11-3.35C12.77,52.67,11.43,52.74,10,52.74Z"/><path class="cls-1" d="M99.76,35c9.42-13.62,21.31-24.41,36.43-31.62.37,8.6,2.65,16.38,8.54,23A106.6,106.6,0,0,0,99.76,35Zm5.93-5.35.35-.32A66.38,66.38,0,0,1,118,20a34.91,34.91,0,0,1,11.38-4.54c1.32-.24,2.66-.35,3.92-.51a13.64,13.64,0,0,1-.61-2.07,18.94,18.94,0,0,1,0-2.4C121.29,13.7,112.55,20.31,105.69,29.6Z"/><path class="cls-1" d="M106.26,52.43c-1.19,0-2.23-.06-3.27,0-2.21.16-4-1.88-4.27-4a4.62,4.62,0,0,1,1.07-3.81,2.7,2.7,0,0,1,.73-.5c.28-.16.68-.2.87-.43.67-.83,1.57-.73,2.46-.73h16.3a4.11,4.11,0,0,1,3.68,3.3c.83,2.85-.85,5.87-3.58,6.26a24.64,24.64,0,0,1-3.44.06h-.61v.9c0,6.31,0,12.62,0,18.93a5.57,5.57,0,0,1-2.29,4.81,4.83,4.83,0,0,1-7.47-3.27,7.26,7.26,0,0,1-.16-1.54q0-9.5,0-19Z"/><path class="cls-1" d="M61.17,19.44c0,4.75,0,9.5,0,14.25A5.89,5.89,0,0,1,57,39.29a5.49,5.49,0,0,1-6.73-4.46,8.79,8.79,0,0,1-.14-1.62q0-13.68,0-27.35a2.21,2.21,0,0,1,.6-1.67A18.86,18.86,0,0,0,52.12,2,4.58,4.58,0,0,1,55.82.26c.59,0,1.17-.2,1.75-.26a1.3,1.3,0,0,1,.75.17,5.57,5.57,0,0,1,2.83,5C61.2,9.94,61.17,14.69,61.17,19.44Z"/><path class="cls-1" d="M55.26,60.27c0-3.93,0-7.86,0-11.79a9.05,9.05,0,0,1,.2-2,3.32,3.32,0,0,1,1.66-2.31c.76-.4,1.41-1.16,2.2-1.35A5.12,5.12,0,0,1,62.1,43a4.78,4.78,0,0,1,3,4,16.07,16.07,0,0,1,.16,2.6q0,11.31,0,22.6a6.18,6.18,0,0,1-1.12,3.93,4.6,4.6,0,0,1-5,1.9,5,5,0,0,1-3.65-3.81,6.43,6.43,0,0,1-.19-1.86Q55.26,66.29,55.26,60.27Z"/></g></g></svg>